# Blender 4.1.1
# www.blender.org
mtllib Scrap4.mtl
o Cube.002
v -0.999999 0.675000 0.000000
v -0.999999 0.450000 -0.225000
v -0.999999 0.667334 -0.058234
v -0.999999 0.644856 -0.112500
v -0.999999 0.609099 -0.159099
v -0.999999 0.562500 -0.194855
v -0.999999 0.508235 -0.217333
v -0.999999 0.450000 0.225001
v -0.999999 0.508235 0.217334
v -0.999999 0.562500 0.194856
v -0.999999 0.609099 0.159100
v -0.999999 0.644856 0.112501
v -0.999999 0.667334 0.058235
v -0.900000 0.450000 -0.225000
v -0.900000 0.675000 0.000000
v -0.900000 0.508235 -0.217333
v -0.900000 0.562500 -0.194855
v -0.900000 0.609099 -0.159099
v -0.900000 0.644856 -0.112500
v -0.900000 0.667334 -0.058234
v -0.900000 0.450000 0.225001
v -0.900000 0.667334 0.058235
v -0.900000 0.644856 0.112501
v -0.900000 0.609099 0.159100
v -0.900000 0.562500 0.194856
v -0.900000 0.508235 0.217334
v -0.999999 -0.007238 -0.225000
v -1.000000 -0.225003 -0.000116
v -0.999999 -0.065225 -0.217337
v -0.999999 -0.118768 -0.194871
v -1.000000 -0.164218 -0.159133
v -1.000000 -0.198476 -0.112558
v -1.000000 -0.219209 -0.058320
v -0.999999 -0.224996 0.000117
v -0.999999 0.007238 0.225001
v -0.999999 -0.215457 0.058321
v -0.999999 -0.191234 0.112559
v -0.999999 -0.153979 0.159134
v -0.999999 -0.106231 0.194872
v -0.999999 -0.051242 0.217338
v -0.900000 -0.225003 -0.000116
v -0.900000 -0.007238 -0.225000
v -0.900000 -0.219209 -0.058320
v -0.900000 -0.198476 -0.112558
v -0.900000 -0.164218 -0.159133
v -0.900000 -0.118768 -0.194871
v -0.900000 -0.065225 -0.217337
v -0.900000 0.007238 0.225001
v -0.900000 -0.224996 0.000117
v -0.900000 -0.051242 0.217338
v -0.900000 -0.106231 0.194872
v -0.900000 -0.153979 0.159134
v -0.900000 -0.191234 0.112559
v -0.900000 -0.215457 0.058321
v 0.900000 0.475000 -0.225000
v 0.900000 0.700000 -0.000000
v 0.900000 0.533234 -0.217334
v 0.900000 0.587500 -0.194856
v 0.900000 0.634099 -0.159099
v 0.900000 0.669855 -0.112500
v 0.900000 0.692333 -0.058234
v 0.900000 0.475000 0.225000
v 0.900000 0.692333 0.058234
v 0.900000 0.669855 0.112500
v 0.900000 0.634099 0.159099
v 0.900000 0.587500 0.194856
v 0.900000 0.533234 0.217334
v 0.900001 -0.200004 -0.000116
v 0.900001 0.017762 -0.225000
v 0.900001 -0.194209 -0.058320
v 0.900001 -0.173477 -0.112558
v 0.900001 -0.139218 -0.159133
v 0.900001 -0.093769 -0.194871
v 0.900001 -0.040226 -0.217337
v 0.900000 0.032238 0.225001
v 0.900001 -0.199996 0.000116
v 0.900000 -0.026243 0.217338
v 0.900000 -0.081231 0.194872
v 0.900000 -0.128980 0.159134
v 0.900001 -0.166235 0.112559
v 0.900001 -0.190457 0.058321
v 0.999999 0.475000 -0.225000
v 0.999999 0.700000 0.000000
v 0.999999 0.533234 -0.217334
v 0.999999 0.587500 -0.194856
v 0.999999 0.634099 -0.159099
v 0.999999 0.669855 -0.112500
v 0.999999 0.692333 -0.058235
v 0.999999 0.475000 0.225000
v 0.999999 0.692333 0.058234
v 0.999999 0.669855 0.112500
v 0.999999 0.634099 0.159099
v 0.999999 0.587500 0.194856
v 0.999999 0.533234 0.217333
v 0.999999 -0.200004 -0.000117
v 0.999999 0.017762 -0.225000
v 0.999999 -0.194209 -0.058320
v 0.999999 -0.173477 -0.112558
v 0.999999 -0.139218 -0.159133
v 0.999999 -0.093769 -0.194871
v 0.999999 -0.040226 -0.217337
v 0.999999 0.032238 0.225001
v 0.999999 -0.199996 0.000116
v 0.999999 -0.026243 0.217338
v 0.999999 -0.081231 0.194872
v 0.999999 -0.128980 0.159134
v 0.999999 -0.166235 0.112559
v 0.999999 -0.190457 0.058321
vn -0.0000 0.0654 -0.9979
vn -0.0000 0.2588 -0.9659
vn -0.0000 0.5000 -0.8660
vn -0.0000 0.7071 -0.7071
vn -0.0000 0.8660 -0.5000
vn -0.0000 0.9659 -0.2588
vn -0.0000 1.0000 -0.0000
vn -0.0000 0.0654 0.9979
vn -0.0000 0.2588 0.9659
vn -0.0000 0.5000 0.8660
vn -0.0000 0.7071 0.7071
vn -0.0000 0.8660 0.5000
vn -0.0000 0.9659 0.2588
vn -0.0000 -0.9953 0.0972
vn -0.0000 -0.9994 -0.0335
vn -0.0000 -0.0651 0.9979
vn -0.0000 -0.0656 -0.9978
vn -0.0000 -0.2562 0.9666
vn -0.0000 -0.4927 0.8702
vn -0.0000 -0.6956 0.7184
vn -0.0000 -0.8539 0.5204
vn -0.0000 -0.9579 0.2871
vn -0.0000 -0.9732 -0.2301
vn -0.0000 -0.8777 -0.4791
vn -0.0000 -0.7184 -0.6956
vn -0.0000 -0.5071 -0.8619
vn -0.0000 -0.2613 -0.9653
vn -1.0000 -0.0000 -0.0000
vn 1.0000 -0.0000 -0.0000
vt 0.375000 0.562500
vt 0.125000 0.562500
vt 0.125000 0.546324
vt 0.375000 0.546324
vt 0.125000 0.531250
vt 0.375000 0.531250
vt 0.125000 0.500000
vt 0.375000 0.500000
vt 0.375000 0.250000
vt 0.437500 0.250000
vt 0.437500 0.500000
vt 0.467648 0.250000
vt 0.467648 0.500000
vt 0.500000 0.250000
vt 0.500000 0.500000
vt 0.875000 0.562500
vt 0.625000 0.562500
vt 0.625000 0.546324
vt 0.875000 0.546324
vt 0.625000 0.531250
vt 0.875000 0.531250
vt 0.625000 0.500000
vt 0.875000 0.500000
vt 0.625000 0.250000
vt 0.562500 0.500000
vt 0.562500 0.250000
vt 0.532352 0.500000
vt 0.532352 0.250000
vt 0.518271 0.750000
vt 0.518271 1.000000
vt 0.518268 1.000000
vt 0.518268 0.750000
vt 0.875000 0.628805
vt 0.625000 0.628805
vt 0.375000 0.629520
vt 0.125000 0.629520
vt 0.875000 0.637563
vt 0.625000 0.637563
vt 0.875000 0.645798
vt 0.625000 0.645798
vt 0.875000 0.662500
vt 0.625000 0.662500
vt 0.520363 0.750000
vt 0.520363 1.000000
vt 0.519326 1.000000
vt 0.519326 0.750000
vt 0.518814 1.000000
vt 0.518814 0.750000
vt 0.517729 1.000000
vt 0.517729 0.750000
vt 0.517231 1.000000
vt 0.517231 0.750000
vt 0.516176 1.000000
vt 0.516176 0.750000
vt 0.375000 0.662500
vt 0.125000 0.662500
vt 0.125000 0.645868
vt 0.375000 0.645868
vt 0.125000 0.638020
vt 0.375000 0.638020
vt 0.501989 0.750995
vt 0.556907 0.772471
vt 0.618804 0.786991
vt 0.676203 0.792466
vt 0.719898 0.787669
vt 0.753690 0.773947
vt 0.781202 0.753172
vt 0.781298 0.753078
vt 0.802763 0.727111
vt 0.818664 0.698526
vt 0.833303 0.671949
vt 0.852022 0.652460
vt 0.868481 0.638895
vt 0.525120 0.670731
vt 0.509223 0.684254
vt 0.489756 0.695145
vt 0.470147 0.701939
vt 0.453328 0.703611
vt 0.438410 0.700745
vt 0.424707 0.694132
vt 0.424656 0.694099
vt 0.412528 0.684412
vt 0.402281 0.672572
vt 0.393214 0.660130
vt 0.384355 0.648792
vt 0.377561 0.638664
s 1
f 14/1/1 2/2/1 7/3/2 16/4/2
f 16/4/2 7/3/2 6/5/3 17/6/3
f 17/6/3 6/5/3 5/7/4 18/8/4
f 18/8/4 5/9/4 4/10/5 19/11/5
f 19/11/5 4/10/5 3/12/6 20/13/6
f 20/13/6 3/12/6 1/14/7 15/15/7
f 8/16/8 21/17/8 26/18/9 9/19/9
f 9/19/9 26/18/9 25/20/10 10/21/10
f 10/21/10 25/20/10 24/22/11 11/23/11
f 11/24/11 24/22/11 23/25/12 12/26/12
f 12/26/12 23/25/12 22/27/13 13/28/13
f 1/14/7 13/28/13 22/27/13 15/15/7
f 49/29/14 34/30/14 28/31/15 41/32/15
f 21/17/8 8/16/8 35/33/16 48/34/16
f 2/2/1 14/1/1 42/35/17 27/36/17
f 48/34/16 35/33/16 40/37/18 50/38/18
f 50/38/18 40/37/18 39/39/19 51/40/19
f 51/40/19 39/39/19 38/41/20 52/42/20
f 52/43/20 38/44/20 37/45/21 53/46/21
f 53/46/21 37/45/21 36/47/22 54/48/22
f 54/48/22 36/47/22 34/30/14 49/29/14
f 41/32/15 28/31/15 33/49/23 43/50/23
f 43/50/23 33/49/23 32/51/24 44/52/24
f 44/52/24 32/51/24 31/53/25 45/54/25
f 45/55/25 31/56/25 30/57/26 46/58/26
f 46/58/26 30/57/26 29/59/27 47/60/27
f 47/60/27 29/59/27 27/36/17 42/35/17
f 2/2/28 27/61/28 29/62/28 30/63/28 31/64/28 32/65/28 33/66/28 28/67/28 34/68/28 36/69/28 37/70/28 38/71/28 39/72/28 40/73/28 35/33/28 8/16/28 9/19/28 10/21/28 11/23/28 12/26/28 13/28/28 1/14/28 3/12/28 4/10/28 5/9/28 6/5/28 7/3/28
f 16/4/29 17/6/29 18/8/29 19/11/29 20/13/29 15/15/29 22/27/29 23/25/29 24/22/29 25/20/29 26/18/29 21/17/29 48/34/29 50/38/29 51/40/29 52/42/29 53/46/29 54/48/29 49/29/29 41/32/29 43/50/29 44/52/29 45/54/29 46/58/29 47/60/29 42/35/29 14/1/29
f 56/15/7 63/27/13 90/27/13 83/15/7
f 57/4/28 55/1/28 69/35/28 74/60/28 73/58/28 72/54/28 71/52/28 70/50/28 68/32/28 76/29/28 81/48/28 80/46/28 79/42/28 78/40/28 77/38/28 75/34/28 62/17/28 67/18/28 66/20/28 65/22/28 64/25/28 63/27/28 56/15/28 61/13/28 60/11/28 59/8/28 58/6/28
f 84/4/29 85/6/29 86/8/29 87/11/29 88/13/29 83/15/29 90/27/29 91/25/29 92/22/29 93/20/29 94/18/29 89/17/29 102/74/29 104/75/29 105/76/29 106/77/29 107/78/29 108/79/29 103/80/29 95/81/29 97/82/29 98/83/29 99/84/29 100/85/29 101/86/29 96/35/29 82/1/29
f 62/17/8 75/34/16 102/34/16 89/17/8
f 60/11/5 61/13/6 88/13/6 87/11/5
f 70/50/23 71/52/24 98/52/24 97/50/23
f 75/34/16 77/38/18 104/38/18 102/34/16
f 61/13/6 56/15/7 83/15/7 88/13/6
f 71/52/24 72/54/25 99/54/25 98/52/24
f 77/38/18 78/40/19 105/40/19 104/38/18
f 67/18/9 62/17/8 89/17/8 94/18/9
f 72/55/25 73/58/26 100/58/26 99/55/25
f 78/40/19 79/42/20 106/42/20 105/40/19
f 66/20/10 67/18/9 94/18/9 93/20/10
f 73/58/26 74/60/27 101/60/27 100/58/26
f 55/1/1 57/4/2 84/4/2 82/1/1
f 79/43/20 80/46/21 107/46/21 106/43/20
f 65/22/11 66/20/10 93/20/10 92/22/11
f 74/60/27 69/35/17 96/35/17 101/60/27
f 57/4/2 58/6/3 85/6/3 84/4/2
f 80/46/21 81/48/22 108/48/22 107/46/21
f 64/25/12 65/22/11 92/22/11 91/25/12
f 69/35/17 55/1/1 82/1/1 96/35/17
f 58/6/3 59/8/4 86/8/4 85/6/3
f 81/48/22 76/29/14 103/29/14 108/48/22
f 63/27/13 64/25/12 91/25/12 90/27/13
f 76/29/14 68/32/15 95/32/15 103/29/14
f 59/8/4 60/11/5 87/11/5 86/8/4
f 68/32/15 70/50/23 97/50/23 95/32/15
