# Blender 4.1.1
# www.blender.org
mtllib Scrap.mtl
o Cube.002
v -0.999999 0.768561 0.000001
v -0.999999 0.518561 -0.249999
v -0.999999 0.760043 -0.064704
v -0.999999 0.735068 -0.124999
v -0.999999 0.695338 -0.176776
v -0.999999 0.643561 -0.216506
v -0.999999 0.583266 -0.241481
v -0.999999 0.518561 0.250001
v -0.999999 0.583266 0.241482
v -0.999999 0.643561 0.216507
v -0.999999 0.695338 0.176777
v -0.999999 0.735068 0.125001
v -0.999999 0.760043 0.064705
v -0.900000 0.518561 -0.249999
v -0.900000 0.768561 0.000001
v -0.900000 0.583266 -0.241481
v -0.900000 0.643561 -0.216506
v -0.900000 0.695338 -0.176776
v -0.900000 0.735068 -0.124999
v -0.900000 0.760043 -0.064704
v -0.900000 0.518561 0.250001
v -0.900000 0.760043 0.064705
v -0.900000 0.735068 0.125001
v -0.900000 0.695338 0.176777
v -0.900000 0.643561 0.216507
v -0.900000 0.583266 0.241482
v -0.999999 0.010519 -0.249999
v -1.000000 -0.231443 -0.000129
v -0.999999 -0.053912 -0.241485
v -0.999999 -0.113404 -0.216523
v -1.000000 -0.163903 -0.176814
v -1.000000 -0.201968 -0.125064
v -1.000000 -0.225005 -0.064800
v -0.999999 -0.231435 0.000130
v -0.999999 0.026603 0.250001
v -0.999999 -0.220836 0.064801
v -0.999999 -0.193922 0.125065
v -0.999999 -0.152527 0.176815
v -0.999999 -0.099473 0.216524
v -0.999999 -0.038375 0.241486
v -0.900000 -0.231443 -0.000129
v -0.900000 0.010519 -0.249999
v -0.900000 -0.225005 -0.064800
v -0.900000 -0.201968 -0.125064
v -0.900000 -0.163903 -0.176814
v -0.900000 -0.113404 -0.216523
v -0.900000 -0.053912 -0.241485
v -0.900000 0.026603 0.250001
v -0.900000 -0.231435 0.000130
v -0.900000 -0.038375 0.241486
v -0.900000 -0.099473 0.216524
v -0.900000 -0.152527 0.176815
v -0.900000 -0.193922 0.125065
v -0.900000 -0.220836 0.064801
v 0.900000 0.518561 -0.249999
v 0.900000 0.768561 0.000001
v 0.900000 0.583266 -0.241481
v 0.900000 0.643561 -0.216506
v 0.900000 0.695338 -0.176776
v 0.900000 0.735068 -0.124999
v 0.900000 0.760043 -0.064704
v 0.900000 0.518561 0.250001
v 0.900000 0.760043 0.064705
v 0.900000 0.735068 0.125001
v 0.900000 0.695338 0.176777
v 0.900000 0.643561 0.216507
v 0.900000 0.583266 0.241482
v 0.900001 -0.231443 -0.000129
v 0.900001 0.010519 -0.249999
v 0.900001 -0.225005 -0.064800
v 0.900001 -0.201968 -0.125064
v 0.900001 -0.163903 -0.176814
v 0.900001 -0.113404 -0.216523
v 0.900001 -0.053912 -0.241485
v 0.900000 0.026603 0.250001
v 0.900001 -0.231435 0.000130
v 0.900000 -0.038375 0.241486
v 0.900000 -0.099473 0.216524
v 0.900000 -0.152528 0.176815
v 0.900001 -0.193922 0.125065
v 0.900001 -0.220836 0.064801
v 0.999999 0.518561 -0.249999
v 0.999999 0.768561 0.000001
v 0.999999 0.583266 -0.241481
v 0.999999 0.643561 -0.216506
v 0.999999 0.695338 -0.176776
v 0.999999 0.735068 -0.124999
v 0.999999 0.760043 -0.064704
v 0.999999 0.518561 0.250001
v 0.999999 0.760043 0.064705
v 0.999999 0.735068 0.125001
v 0.999999 0.695338 0.176777
v 0.999999 0.643561 0.216507
v 0.999999 0.583266 0.241482
v 0.999999 -0.231443 -0.000129
v 0.999999 0.010519 -0.249999
v 0.999999 -0.225005 -0.064800
v 0.999999 -0.201968 -0.125064
v 0.999999 -0.163903 -0.176814
v 0.999999 -0.113404 -0.216523
v 0.999999 -0.053912 -0.241485
v 0.999999 0.026603 0.250001
v 0.999999 -0.231435 0.000130
v 0.999999 -0.038375 0.241486
v 0.999999 -0.099473 0.216524
v 0.999999 -0.152528 0.176815
v 0.999999 -0.193922 0.125065
v 0.999999 -0.220836 0.064801
vn -0.0000 0.1305 -0.9914
vn -0.0000 0.3827 -0.9239
vn -0.0000 0.6088 -0.7934
vn -0.0000 0.7934 -0.6088
vn -0.0000 0.9239 -0.3827
vn -0.0000 0.9914 -0.1305
vn -0.0000 0.1305 0.9914
vn -0.0000 0.3827 0.9239
vn -0.0000 0.6088 0.7934
vn -0.0000 0.7934 0.6088
vn -0.0000 0.9239 0.3827
vn -0.0000 0.9914 0.1305
vn -0.0000 -0.9995 0.0323
vn -0.0000 -0.0000 1.0000
vn -0.0000 -0.0000 -1.0000
vn -0.0000 -0.1299 0.9915
vn -0.0000 -0.3782 0.9257
vn -0.0000 -0.5992 0.8006
vn -0.0000 -0.7809 0.6246
vn -0.0000 -0.9131 0.4078
vn -0.0000 -0.9868 0.1617
vn -0.0000 -0.9951 -0.0991
vn -0.0000 -0.9341 -0.3571
vn -0.0000 -0.8056 -0.5925
vn -0.0000 -0.6181 -0.7861
vn -0.0000 -0.3869 -0.9221
vn -0.0000 -0.1310 -0.9914
vn -1.0000 -0.0000 -0.0000
vn 1.0000 -0.0000 -0.0000
vn -0.0000 -0.9995 0.0321
vt 0.375000 0.562500
vt 0.125000 0.562500
vt 0.125000 0.546324
vt 0.375000 0.546324
vt 0.125000 0.531250
vt 0.375000 0.531250
vt 0.125000 0.500000
vt 0.375000 0.500000
vt 0.375000 0.250000
vt 0.437500 0.250000
vt 0.437500 0.500000
vt 0.467648 0.250000
vt 0.467648 0.500000
vt 0.500000 0.250000
vt 0.500000 0.500000
vt 0.875000 0.562500
vt 0.625000 0.562500
vt 0.625000 0.546324
vt 0.875000 0.546324
vt 0.625000 0.531250
vt 0.875000 0.531250
vt 0.625000 0.500000
vt 0.875000 0.500000
vt 0.625000 0.250000
vt 0.562500 0.500000
vt 0.562500 0.250000
vt 0.532352 0.500000
vt 0.532352 0.250000
vt 0.518271 0.750000
vt 0.518271 1.000000
vt 0.518268 1.000000
vt 0.518268 0.750000
vt 0.875000 0.628805
vt 0.625000 0.628805
vt 0.375000 0.629520
vt 0.125000 0.629520
vt 0.875000 0.637563
vt 0.625000 0.637563
vt 0.875000 0.645798
vt 0.625000 0.645798
vt 0.875000 0.662500
vt 0.625000 0.662500
vt 0.520363 0.750000
vt 0.520363 1.000000
vt 0.519326 1.000000
vt 0.519326 0.750000
vt 0.518814 1.000000
vt 0.518814 0.750000
vt 0.517729 1.000000
vt 0.517729 0.750000
vt 0.517231 1.000000
vt 0.517231 0.750000
vt 0.516176 1.000000
vt 0.516176 0.750000
vt 0.375000 0.662500
vt 0.125000 0.662500
vt 0.125000 0.645868
vt 0.375000 0.645868
vt 0.125000 0.638020
vt 0.375000 0.638020
vt 0.501989 0.750995
vt 0.556907 0.772471
vt 0.618804 0.786991
vt 0.676203 0.792466
vt 0.719898 0.787669
vt 0.753690 0.773947
vt 0.781202 0.753172
vt 0.781298 0.753078
vt 0.802763 0.727111
vt 0.818664 0.698526
vt 0.833303 0.671949
vt 0.852022 0.652460
vt 0.868481 0.638895
vt 0.525120 0.670731
vt 0.509223 0.684254
vt 0.489756 0.695145
vt 0.470147 0.701939
vt 0.453328 0.703611
vt 0.438410 0.700745
vt 0.424707 0.694132
vt 0.424656 0.694099
vt 0.412528 0.684412
vt 0.402281 0.672572
vt 0.393214 0.660130
vt 0.384355 0.648792
vt 0.377561 0.638664
s 0
f 14/1/1 2/2/1 7/3/1 16/4/1
f 16/4/2 7/3/2 6/5/2 17/6/2
f 17/6/3 6/5/3 5/7/3 18/8/3
f 18/8/4 5/9/4 4/10/4 19/11/4
f 19/11/5 4/10/5 3/12/5 20/13/5
f 20/13/6 3/12/6 1/14/6 15/15/6
f 8/16/7 21/17/7 26/18/7 9/19/7
f 9/19/8 26/18/8 25/20/8 10/21/8
f 10/21/9 25/20/9 24/22/9 11/23/9
f 11/24/10 24/22/10 23/25/10 12/26/10
f 12/26/11 23/25/11 22/27/11 13/28/11
f 1/14/12 13/28/12 22/27/12 15/15/12
f 49/29/13 34/30/13 28/31/13 41/32/13
f 21/17/14 8/16/14 35/33/14 48/34/14
f 2/2/15 14/1/15 42/35/15 27/36/15
f 48/34/16 35/33/16 40/37/16 50/38/16
f 50/38/17 40/37/17 39/39/17 51/40/17
f 51/40/18 39/39/18 38/41/18 52/42/18
f 52/43/19 38/44/19 37/45/19 53/46/19
f 53/46/20 37/45/20 36/47/20 54/48/20
f 54/48/21 36/47/21 34/30/21 49/29/21
f 41/32/22 28/31/22 33/49/22 43/50/22
f 43/50/23 33/49/23 32/51/23 44/52/23
f 44/52/24 32/51/24 31/53/24 45/54/24
f 45/55/25 31/56/25 30/57/25 46/58/25
f 46/58/26 30/57/26 29/59/26 47/60/26
f 47/60/27 29/59/27 27/36/27 42/35/27
f 2/2/28 27/61/28 29/62/28 30/63/28 31/64/28 32/65/28 33/66/28 28/67/28 34/68/28 36/69/28 37/70/28 38/71/28 39/72/28 40/73/28 35/33/28 8/16/28 9/19/28 10/21/28 11/23/28 12/26/28 13/28/28 1/14/28 3/12/28 4/10/28 5/9/28 6/5/28 7/3/28
f 16/4/29 17/6/29 18/8/29 19/11/29 20/13/29 15/15/29 22/27/29 23/25/29 24/22/29 25/20/29 26/18/29 21/17/29 48/34/29 50/38/29 51/40/29 52/42/29 53/46/29 54/48/29 49/29/29 41/32/29 43/50/29 44/52/29 45/54/29 46/58/29 47/60/29 42/35/29 14/1/29
f 56/15/12 63/27/12 90/27/12 83/15/12
f 57/4/28 55/1/28 69/35/28 74/60/28 73/58/28 72/54/28 71/52/28 70/50/28 68/32/28 76/29/28 81/48/28 80/46/28 79/42/28 78/40/28 77/38/28 75/34/28 62/17/28 67/18/28 66/20/28 65/22/28 64/25/28 63/27/28 56/15/28 61/13/28 60/11/28 59/8/28 58/6/28
f 84/4/29 85/6/29 86/8/29 87/11/29 88/13/29 83/15/29 90/27/29 91/25/29 92/22/29 93/20/29 94/18/29 89/17/29 102/74/29 104/75/29 105/76/29 106/77/29 107/78/29 108/79/29 103/80/29 95/81/29 97/82/29 98/83/29 99/84/29 100/85/29 101/86/29 96/35/29 82/1/29
f 62/17/14 75/34/14 102/34/14 89/17/14
f 60/11/5 61/13/5 88/13/5 87/11/5
f 70/50/23 71/52/23 98/52/23 97/50/23
f 75/34/16 77/38/16 104/38/16 102/34/16
f 61/13/6 56/15/6 83/15/6 88/13/6
f 71/52/24 72/54/24 99/54/24 98/52/24
f 77/38/17 78/40/17 105/40/17 104/38/17
f 67/18/7 62/17/7 89/17/7 94/18/7
f 72/55/25 73/58/25 100/58/25 99/55/25
f 78/40/18 79/42/18 106/42/18 105/40/18
f 66/20/8 67/18/8 94/18/8 93/20/8
f 73/58/26 74/60/26 101/60/26 100/58/26
f 55/1/1 57/4/1 84/4/1 82/1/1
f 79/43/19 80/46/19 107/46/19 106/43/19
f 65/22/9 66/20/9 93/20/9 92/22/9
f 74/60/27 69/35/27 96/35/27 101/60/27
f 57/4/2 58/6/2 85/6/2 84/4/2
f 80/46/20 81/48/20 108/48/20 107/46/20
f 64/25/10 65/22/10 92/22/10 91/25/10
f 69/35/15 55/1/15 82/1/15 96/35/15
f 58/6/3 59/8/3 86/8/3 85/6/3
f 81/48/21 76/29/21 103/29/21 108/48/21
f 63/27/11 64/25/11 91/25/11 90/27/11
f 76/29/30 68/32/30 95/32/30 103/29/30
f 59/8/4 60/11/4 87/11/4 86/8/4
f 68/32/22 70/50/22 97/50/22 95/32/22
