# Blender 4.1.1
# www.blender.org
mtllib Scrap3.mtl
o Cube.002
v -0.999999 0.675000 0.000000
v -0.999999 0.450000 -0.237500
v -0.999999 0.667334 -0.061469
v -0.999999 0.644856 -0.118749
v -0.999999 0.609100 -0.167937
v -0.999999 0.562500 -0.205681
v -0.999999 0.508235 -0.229407
v -0.999999 0.450000 0.237501
v -0.999999 0.508235 0.229408
v -0.999999 0.562500 0.205682
v -0.999999 0.609100 0.167938
v -0.999999 0.644856 0.118751
v -0.999999 0.667334 0.061470
v -0.900000 0.450000 -0.237500
v -0.900000 0.675000 0.000000
v -0.900000 0.508235 -0.229407
v -0.900000 0.562500 -0.205681
v -0.900000 0.609100 -0.167937
v -0.900000 0.644856 -0.118749
v -0.900000 0.667334 -0.061469
v -0.900000 0.450000 0.237501
v -0.900000 0.667334 0.061470
v -0.900000 0.644856 0.118751
v -0.900000 0.609100 0.167938
v -0.900000 0.562500 0.205682
v -0.900000 0.508235 0.229408
v -0.999999 -0.007238 -0.237499
v -1.000000 -0.225003 -0.000122
v -0.999999 -0.065225 -0.229411
v -0.999999 -0.118768 -0.205697
v -1.000000 -0.164218 -0.167973
v -1.000000 -0.198476 -0.118811
v -1.000000 -0.219209 -0.061560
v -0.999999 -0.224996 0.000123
v -0.999999 0.007238 0.237500
v -0.999999 -0.215457 0.061561
v -0.999999 -0.191234 0.118812
v -0.999999 -0.153979 0.167974
v -0.999999 -0.106231 0.205698
v -0.999999 -0.051242 0.229412
v -0.900000 -0.225003 -0.000122
v -0.900000 -0.007238 -0.237499
v -0.900000 -0.219209 -0.061560
v -0.900000 -0.198476 -0.118811
v -0.900000 -0.164218 -0.167973
v -0.900000 -0.118768 -0.205697
v -0.900000 -0.065225 -0.229411
v -0.900000 0.007238 0.237500
v -0.900000 -0.224996 0.000123
v -0.900000 -0.051242 0.229412
v -0.900000 -0.106231 0.205698
v -0.900000 -0.153979 0.167974
v -0.900000 -0.191234 0.118812
v -0.900000 -0.215457 0.061561
v 0.900000 0.475000 -0.237500
v 0.900000 0.700000 -0.000000
v 0.900000 0.533234 -0.229407
v 0.900000 0.587500 -0.205681
v 0.900000 0.634099 -0.167938
v 0.900000 0.669856 -0.118750
v 0.900000 0.692333 -0.061470
v 0.900000 0.475000 0.237500
v 0.900000 0.692333 0.061470
v 0.900000 0.669856 0.118750
v 0.900000 0.634099 0.167938
v 0.900000 0.587500 0.205681
v 0.900000 0.533234 0.229407
v 0.900001 -0.200004 -0.000123
v 0.900001 0.017762 -0.237499
v 0.900001 -0.194209 -0.061560
v 0.900001 -0.173477 -0.118811
v 0.900001 -0.139218 -0.167973
v 0.900001 -0.093769 -0.205697
v 0.900001 -0.040226 -0.229411
v 0.900000 0.032238 0.237501
v 0.900001 -0.199996 0.000123
v 0.900000 -0.026243 0.229412
v 0.900000 -0.081231 0.205698
v 0.900000 -0.128980 0.167974
v 0.900001 -0.166235 0.118812
v 0.900001 -0.190457 0.061561
v 0.999999 0.475000 -0.237500
v 0.999999 0.700000 -0.000001
v 0.999999 0.533234 -0.229407
v 0.999999 0.587500 -0.205681
v 0.999999 0.634099 -0.167938
v 0.999999 0.669856 -0.118750
v 0.999999 0.692333 -0.061470
v 0.999999 0.475000 0.237500
v 0.999999 0.692333 0.061470
v 0.999999 0.669856 0.118750
v 0.999999 0.634099 0.167938
v 0.999999 0.587500 0.205681
v 0.999999 0.533234 0.229407
v 0.999999 -0.200004 -0.000123
v 0.999999 0.017762 -0.237499
v 0.999999 -0.194209 -0.061560
v 0.999999 -0.173477 -0.118811
v 0.999999 -0.139218 -0.167973
v 0.999999 -0.093769 -0.205697
v 0.999999 -0.040226 -0.229411
v 0.999999 0.032238 0.237501
v 0.999999 -0.199996 0.000123
v 0.999999 -0.026243 0.229412
v 0.999999 -0.081231 0.205698
v 0.999999 -0.128980 0.167974
v 0.999999 -0.166235 0.118812
v 0.999999 -0.190457 0.061561
vn -0.0000 0.0690 -0.9976
vn -0.0000 0.2722 -0.9623
vn -0.0000 0.5204 -0.8539
vn -0.0000 0.7260 -0.6877
vn -0.0000 0.8773 -0.4799
vn -0.0000 0.9693 -0.2460
vn -0.0000 1.0000 -0.0000
vn -0.0000 0.0690 0.9976
vn -0.0000 0.2722 0.9623
vn -0.0000 0.5204 0.8539
vn -0.0000 0.7260 0.6877
vn -0.0000 0.8773 0.4799
vn -0.0000 0.9693 0.2460
vn -0.0000 -0.9957 0.0921
vn -0.0000 -0.9958 0.0921
vn -0.0000 -0.9995 -0.0317
vn -0.0000 -0.0687 0.9976
vn -0.0000 -0.0693 -0.9976
vn -0.0000 -0.2694 0.9630
vn -0.0000 -0.5130 0.8584
vn -0.0000 -0.7148 0.6993
vn -0.0000 -0.8660 0.5000
vn -0.0000 -0.9620 0.2732
vn -0.0000 -0.9758 -0.2186
vn -0.0000 -0.8883 -0.4593
vn -0.0000 -0.7369 -0.6760
vn -0.0000 -0.5276 -0.8495
vn -0.0000 -0.2747 -0.9615
vn -1.0000 -0.0000 -0.0000
vn 1.0000 -0.0000 -0.0000
vt 0.375000 0.562500
vt 0.125000 0.562500
vt 0.125000 0.546324
vt 0.375000 0.546324
vt 0.125000 0.531250
vt 0.375000 0.531250
vt 0.125000 0.500000
vt 0.375000 0.500000
vt 0.375000 0.250000
vt 0.437500 0.250000
vt 0.437500 0.500000
vt 0.467648 0.250000
vt 0.467648 0.500000
vt 0.500000 0.250000
vt 0.500000 0.500000
vt 0.875000 0.562500
vt 0.625000 0.562500
vt 0.625000 0.546324
vt 0.875000 0.546324
vt 0.625000 0.531250
vt 0.875000 0.531250
vt 0.625000 0.500000
vt 0.875000 0.500000
vt 0.625000 0.250000
vt 0.562500 0.500000
vt 0.562500 0.250000
vt 0.532352 0.500000
vt 0.532352 0.250000
vt 0.518271 0.750000
vt 0.518271 1.000000
vt 0.518268 1.000000
vt 0.518268 0.750000
vt 0.875000 0.628805
vt 0.625000 0.628805
vt 0.375000 0.629520
vt 0.125000 0.629520
vt 0.875000 0.637563
vt 0.625000 0.637563
vt 0.875000 0.645798
vt 0.625000 0.645798
vt 0.875000 0.662500
vt 0.625000 0.662500
vt 0.520363 0.750000
vt 0.520363 1.000000
vt 0.519326 1.000000
vt 0.519326 0.750000
vt 0.518814 1.000000
vt 0.518814 0.750000
vt 0.517729 1.000000
vt 0.517729 0.750000
vt 0.517231 1.000000
vt 0.517231 0.750000
vt 0.516176 1.000000
vt 0.516176 0.750000
vt 0.375000 0.662500
vt 0.125000 0.662500
vt 0.125000 0.645868
vt 0.375000 0.645868
vt 0.125000 0.638020
vt 0.375000 0.638020
vt 0.501989 0.750995
vt 0.556907 0.772471
vt 0.618804 0.786991
vt 0.676203 0.792466
vt 0.719898 0.787669
vt 0.753690 0.773947
vt 0.781202 0.753172
vt 0.781298 0.753078
vt 0.802763 0.727111
vt 0.818664 0.698526
vt 0.833303 0.671949
vt 0.852022 0.652460
vt 0.868481 0.638895
vt 0.525120 0.670731
vt 0.509223 0.684254
vt 0.489756 0.695145
vt 0.470147 0.701939
vt 0.453328 0.703611
vt 0.438410 0.700745
vt 0.424707 0.694132
vt 0.424656 0.694099
vt 0.412528 0.684412
vt 0.402281 0.672572
vt 0.393214 0.660130
vt 0.384355 0.648792
vt 0.377561 0.638664
s 1
f 14/1/1 2/2/1 7/3/2 16/4/2
f 16/4/2 7/3/2 6/5/3 17/6/3
f 17/6/3 6/5/3 5/7/4 18/8/4
f 18/8/4 5/9/4 4/10/5 19/11/5
f 19/11/5 4/10/5 3/12/6 20/13/6
f 20/13/6 3/12/6 1/14/7 15/15/7
f 8/16/8 21/17/8 26/18/9 9/19/9
f 9/19/9 26/18/9 25/20/10 10/21/10
f 10/21/10 25/20/10 24/22/11 11/23/11
f 11/24/11 24/22/11 23/25/12 12/26/12
f 12/26/12 23/25/12 22/27/13 13/28/13
f 1/14/7 13/28/13 22/27/13 15/15/7
f 49/29/14 34/30/15 28/31/16 41/32/16
f 21/17/8 8/16/8 35/33/17 48/34/17
f 2/2/1 14/1/1 42/35/18 27/36/18
f 48/34/17 35/33/17 40/37/19 50/38/19
f 50/38/19 40/37/19 39/39/20 51/40/20
f 51/40/20 39/39/20 38/41/21 52/42/21
f 52/43/21 38/44/21 37/45/22 53/46/22
f 53/46/22 37/45/22 36/47/23 54/48/23
f 54/48/23 36/47/23 34/30/15 49/29/14
f 41/32/16 28/31/16 33/49/24 43/50/24
f 43/50/24 33/49/24 32/51/25 44/52/25
f 44/52/25 32/51/25 31/53/26 45/54/26
f 45/55/26 31/56/26 30/57/27 46/58/27
f 46/58/27 30/57/27 29/59/28 47/60/28
f 47/60/28 29/59/28 27/36/18 42/35/18
f 2/2/29 27/61/29 29/62/29 30/63/29 31/64/29 32/65/29 33/66/29 28/67/29 34/68/29 36/69/29 37/70/29 38/71/29 39/72/29 40/73/29 35/33/29 8/16/29 9/19/29 10/21/29 11/23/29 12/26/29 13/28/29 1/14/29 3/12/29 4/10/29 5/9/29 6/5/29 7/3/29
f 16/4/30 17/6/30 18/8/30 19/11/30 20/13/30 15/15/30 22/27/30 23/25/30 24/22/30 25/20/30 26/18/30 21/17/30 48/34/30 50/38/30 51/40/30 52/42/30 53/46/30 54/48/30 49/29/30 41/32/30 43/50/30 44/52/30 45/54/30 46/58/30 47/60/30 42/35/30 14/1/30
f 56/15/7 63/27/13 90/27/13 83/15/7
f 57/4/29 55/1/29 69/35/29 74/60/29 73/58/29 72/54/29 71/52/29 70/50/29 68/32/29 76/29/29 81/48/29 80/46/29 79/42/29 78/40/29 77/38/29 75/34/29 62/17/29 67/18/29 66/20/29 65/22/29 64/25/29 63/27/29 56/15/29 61/13/29 60/11/29 59/8/29 58/6/29
f 84/4/30 85/6/30 86/8/30 87/11/30 88/13/30 83/15/30 90/27/30 91/25/30 92/22/30 93/20/30 94/18/30 89/17/30 102/74/30 104/75/30 105/76/30 106/77/30 107/78/30 108/79/30 103/80/30 95/81/30 97/82/30 98/83/30 99/84/30 100/85/30 101/86/30 96/35/30 82/1/30
f 62/17/8 75/34/17 102/34/17 89/17/8
f 60/11/5 61/13/6 88/13/6 87/11/5
f 70/50/24 71/52/25 98/52/25 97/50/24
f 75/34/17 77/38/19 104/38/19 102/34/17
f 61/13/6 56/15/7 83/15/7 88/13/6
f 71/52/25 72/54/26 99/54/26 98/52/25
f 77/38/19 78/40/20 105/40/20 104/38/19
f 67/18/9 62/17/8 89/17/8 94/18/9
f 72/55/26 73/58/27 100/58/27 99/55/26
f 78/40/20 79/42/21 106/42/21 105/40/20
f 66/20/10 67/18/9 94/18/9 93/20/10
f 73/58/27 74/60/28 101/60/28 100/58/27
f 55/1/1 57/4/2 84/4/2 82/1/1
f 79/43/21 80/46/22 107/46/22 106/43/21
f 65/22/11 66/20/10 93/20/10 92/22/11
f 74/60/28 69/35/18 96/35/18 101/60/28
f 57/4/2 58/6/3 85/6/3 84/4/2
f 80/46/22 81/48/23 108/48/23 107/46/22
f 64/25/12 65/22/11 92/22/11 91/25/12
f 69/35/18 55/1/1 82/1/1 96/35/18
f 58/6/3 59/8/4 86/8/4 85/6/3
f 81/48/23 76/29/14 103/29/14 108/48/23
f 63/27/13 64/25/12 91/25/12 90/27/13
f 76/29/14 68/32/16 95/32/16 103/29/14
f 59/8/4 60/11/5 87/11/5 86/8/4
f 68/32/16 70/50/24 97/50/24 95/32/16
